<svg width="25" height="24" viewBox="0 0 25 24" fill="none" xmlns="http://www.w3.org/2000/svg">
<path d="M18.3877 10.8967C19.7827 10.7007 20.8567 9.50473 20.8597 8.05573C20.8597 6.62773 19.8187 5.44373 18.4537 5.21973" stroke="white" stroke-width="1.5" stroke-linecap="round" stroke-linejoin="round"/>
<path d="M20.2285 14.2505C21.5795 14.4525 22.5225 14.9255 22.5225 15.9005C22.5225 16.5715 22.0785 17.0075 21.3605 17.2815" stroke="white" stroke-width="1.5" stroke-linecap="round" stroke-linejoin="round"/>
<path fill-rule="evenodd" clip-rule="evenodd" d="M12.3867 14.6638C9.17273 14.6638 6.42773 15.1508 6.42773 17.0958C6.42773 19.0398 9.15573 19.5408 12.3867 19.5408C15.6007 19.5408 18.3447 19.0588 18.3447 17.1128C18.3447 15.1668 15.6177 14.6638 12.3867 14.6638Z" stroke="white" stroke-width="1.5" stroke-linecap="round" stroke-linejoin="round"/>
<path fill-rule="evenodd" clip-rule="evenodd" d="M12.3869 11.888C14.4959 11.888 16.2059 10.179 16.2059 8.069C16.2059 5.96 14.4959 4.25 12.3869 4.25C10.2779 4.25 8.5679 5.96 8.5679 8.069C8.5599 10.171 10.2569 11.881 12.3589 11.888H12.3869Z" stroke="white" stroke-width="1.5" stroke-linecap="round" stroke-linejoin="round"/>
<path d="M6.38484 10.8967C4.98884 10.7007 3.91584 9.50473 3.91284 8.05573C3.91284 6.62773 4.95384 5.44373 6.31884 5.21973" stroke="white" stroke-width="1.5" stroke-linecap="round" stroke-linejoin="round"/>
<path d="M4.544 14.2505C3.193 14.4525 2.25 14.9255 2.25 15.9005C2.25 16.5715 2.694 17.0075 3.412 17.2815" stroke="white" stroke-width="1.5" stroke-linecap="round" stroke-linejoin="round"/>
</svg>
