<svg width="24" height="24" viewBox="0 0 24 24" fill="none" xmlns="http://www.w3.org/2000/svg">
<path d="M5.10573 14.3878C4.68574 13.6992 4.71407 12.8849 4.68574 12.164C4.63507 10.8745 4.9032 9.59243 5.46638 8.43131C6.02957 7.27019 6.78505 6.30541 6.97645 6.11401L9.27322 7.83659C8.69902 8.41078 8.38116 8.92989 8.02181 9.67077C7.66246 10.4116 7.49137 11.2297 7.5237 12.0525C7.55603 12.8753 7.79078 13.6774 8.20715 14.3878C8.62352 15.0982 9.20867 15.695 9.91076 16.1252C10.6128 16.5554 11.4102 16.8059 12.2322 16.8544C13.0542 16.9028 13.8755 16.7478 14.6233 16.4031C15.3711 16.0584 16.0223 15.5345 16.5193 14.878C17.0162 14.2214 17.1831 13.8176 17.3119 13.0043L20.2776 13.0835C20.0758 14.3581 19.5627 15.5632 18.7838 16.5922C18.0049 17.6211 16.9843 18.4421 15.8123 18.9824C14.6404 19.5226 13.3533 19.7656 12.065 19.6896C10.7768 19.6136 9.52712 19.2211 8.42679 18.5468C8.10991 18.3527 7.80824 18.1368 7.5237 17.9013" stroke="white" stroke-width="1.5"/>
<circle cx="6.21083" cy="16.2581" r="1.54676" stroke="white" stroke-width="1.5"/>
<mask id="path-3-inside-1_17_29347" fill="white">
<rect x="5.13013" width="11.4838" height="4.05082" rx="1" transform="rotate(35.7158 5.13013 0)"/>
</mask>
<rect x="5.13013" width="11.4838" height="4.05082" rx="1" transform="rotate(35.7158 5.13013 0)" stroke="white" stroke-width="3" mask="url(#path-3-inside-1_17_29347)"/>
<line x1="15.0149" y1="12.4457" x2="22.288" y2="12.4457" stroke="white" stroke-width="1.5"/>
<mask id="path-5-inside-2_17_29347" fill="white">
<path d="M2 21.5C2 20.6716 2.67157 20 3.5 20H20.5C21.3284 20 22 20.6716 22 21.5H2Z"/>
</mask>
<path d="M3.5 21.5H20.5V18.5H3.5V21.5ZM22 20H2V23H22V20ZM20.5 21.5H23.5C23.5 19.8431 22.1569 18.5 20.5 18.5V21.5ZM3.5 18.5C1.84315 18.5 0.5 19.8431 0.5 21.5H3.5H3.5V18.5Z" fill="white" mask="url(#path-5-inside-2_17_29347)"/>
<path d="M5 17L5 20" stroke="white" stroke-width="1.5"/>
</svg>
