<svg width="25" height="24" viewBox="0 0 25 24" fill="none" xmlns="http://www.w3.org/2000/svg">
<path d="M9.5 10H10.5C10.7652 10 11.0196 9.89464 11.2071 9.70711C11.3946 9.51957 11.5 9.26522 11.5 9C11.5 8.73478 11.3946 8.48043 11.2071 8.29289C11.0196 8.10536 10.7652 8 10.5 8H9.5C9.23478 8 8.98043 8.10536 8.79289 8.29289C8.60536 8.48043 8.5 8.73478 8.5 9C8.5 9.26522 8.60536 9.51957 8.79289 9.70711C8.98043 9.89464 9.23478 10 9.5 10ZM9.5 12C9.23478 12 8.98043 12.1054 8.79289 12.2929C8.60536 12.4804 8.5 12.7348 8.5 13C8.5 13.2652 8.60536 13.5196 8.79289 13.7071C8.98043 13.8946 9.23478 14 9.5 14H15.5C15.7652 14 16.0196 13.8946 16.2071 13.7071C16.3946 13.5196 16.5 13.2652 16.5 13C16.5 12.7348 16.3946 12.4804 16.2071 12.2929C16.0196 12.1054 15.7652 12 15.5 12H9.5ZM20.5 8.94C20.4896 8.84813 20.4695 8.75763 20.44 8.67V8.58C20.3919 8.47718 20.3278 8.38267 20.25 8.3L14.25 2.3C14.1673 2.22222 14.0728 2.15808 13.97 2.11C13.9402 2.10576 13.9099 2.10576 13.88 2.11C13.7784 2.05174 13.6662 2.01434 13.55 2H7.5C6.70435 2 5.94129 2.31607 5.37868 2.87868C4.81607 3.44129 4.5 4.20435 4.5 5V19C4.5 19.7956 4.81607 20.5587 5.37868 21.1213C5.94129 21.6839 6.70435 22 7.5 22H17.5C18.2956 22 19.0587 21.6839 19.6213 21.1213C20.1839 20.5587 20.5 19.7956 20.5 19V9C20.5 9 20.5 9 20.5 8.94ZM14.5 5.41L17.09 8H15.5C15.2348 8 14.9804 7.89464 14.7929 7.70711C14.6054 7.51957 14.5 7.26522 14.5 7V5.41ZM18.5 19C18.5 19.2652 18.3946 19.5196 18.2071 19.7071C18.0196 19.8946 17.7652 20 17.5 20H7.5C7.23478 20 6.98043 19.8946 6.79289 19.7071C6.60536 19.5196 6.5 19.2652 6.5 19V5C6.5 4.73478 6.60536 4.48043 6.79289 4.29289C6.98043 4.10536 7.23478 4 7.5 4H12.5V7C12.5 7.79565 12.8161 8.55871 13.3787 9.12132C13.9413 9.68393 14.7044 10 15.5 10H18.5V19ZM15.5 16H9.5C9.23478 16 8.98043 16.1054 8.79289 16.2929C8.60536 16.4804 8.5 16.7348 8.5 17C8.5 17.2652 8.60536 17.5196 8.79289 17.7071C8.98043 17.8946 9.23478 18 9.5 18H15.5C15.7652 18 16.0196 17.8946 16.2071 17.7071C16.3946 17.5196 16.5 17.2652 16.5 17C16.5 16.7348 16.3946 16.4804 16.2071 16.2929C16.0196 16.1054 15.7652 16 15.5 16Z" fill="white"/>
</svg>
